<svg xmlns="http://www.w3.org/2000/svg"  viewBox="0 0 64 64" width="512px" height="512px"><radialGradient id="0LPusQOBYxsbVHKLUqKL6a" cx="32" cy="31.5" r="31.259" gradientUnits="userSpaceOnUse" spreadMethod="reflect"><stop offset="0" stop-color="#c5f1ff"/><stop offset=".35" stop-color="#cdf3ff"/><stop offset=".907" stop-color="#e4faff"/><stop offset="1" stop-color="#e9fbff"/></radialGradient><path fill="url(#0LPusQOBYxsbVHKLUqKL6a)" d="M58,54c-1.105,0-2-0.895-2-2c0-1.105,0.895-2,2-2h2.5c1.925,0,3.5-1.575,3.5-3.5 S62.425,43,60.5,43H50c-1.381,0-2.5-1.119-2.5-2.5c0-1.381,1.119-2.5,2.5-2.5h8c1.65,0,3-1.35,3-3c0-1.65-1.35-3-3-3H42v-6h18 c2.335,0,4.22-2.028,3.979-4.41C63.77,19.514,61.897,18,59.811,18H58c-1.105,0-2-0.895-2-2c0-1.105,0.895-2,2-2h0.357 c1.308,0,2.499-0.941,2.63-2.242C61.137,10.261,59.966,9,58.5,9h-14C43.672,9,43,8.328,43,7.5S43.672,6,44.5,6h3.857 c1.308,0,2.499-0.941,2.63-2.242C51.137,2.261,49.966,1,48.5,1L15.643,1c-1.308,0-2.499,0.941-2.63,2.242 C12.863,4.739,14.034,6,15.5,6H19c1.105,0,2,0.895,2,2c0,1.105-0.895,2-2,2H6.189c-2.086,0-3.958,1.514-4.168,3.59 C1.78,15.972,3.665,18,6,18h2.5c1.933,0,3.5,1.567,3.5,3.5c0,1.933-1.567,3.5-3.5,3.5H5.189c-2.086,0-3.958,1.514-4.168,3.59 C0.78,30.972,2.665,33,5,33h17v11H6c-1.65,0-3,1.35-3,3c0,1.65,1.35,3,3,3h0c1.105,0,2,0.895,2,2c0,1.105-0.895,2-2,2H4.189 c-2.086,0-3.958,1.514-4.168,3.59C-0.22,59.972,1.665,62,4,62h53.811c2.086,0,3.958-1.514,4.168-3.59C62.22,56.028,60.335,54,58,54z"/><linearGradient id="0LPusQOBYxsbVHKLUqKL6b" x1="32" x2="32" y1="61.521" y2="17.521" gradientUnits="userSpaceOnUse" spreadMethod="reflect"><stop offset="0" stop-color="#155cde"/><stop offset=".278" stop-color="#1f7fe5"/><stop offset=".569" stop-color="#279ceb"/><stop offset=".82" stop-color="#2cafef"/><stop offset="1" stop-color="#2eb5f0"/></linearGradient><path fill="url(#0LPusQOBYxsbVHKLUqKL6b)" d="M50,12H14c-2.209,0-4,1.791-4,4v36c0,2.209,1.791,4,4,4h36c2.209,0,4-1.791,4-4V16 C54,13.791,52.209,12,50,12z"/><path fill="#fff" d="M17,28v8h9c2.761,0,5-2.239,5-5v0c0-2.761-2.239-5-5-5h-7C17.895,26,17,26.895,17,28z M25,33h-4v-4h4 c1.105,0,2,0.895,2,2v0C27,32.105,26.105,33,25,33z"/><path fill="#fff" d="M17 33v9c0 1.105.895 2 2 2h7.5c3.038 0 5.5-2.462 5.5-5.5v0c0-3.038-2.462-5.5-5.5-5.5H17zM25.5 41H21v-5h4.5c1.381 0 2.5 1.119 2.5 2.5v0C28 39.881 26.881 41 25.5 41zM43.5 29h-6c-.828 0-1.5-.672-1.5-1.5v0c0-.828.672-1.5 1.5-1.5h6c.828 0 1.5.672 1.5 1.5v0C45 28.328 44.328 29 43.5 29zM46.95 36.71c-.37-3.117-2.961-5.561-6.154-5.703-3.507-.157-6.732 2.866-6.795 6.376C33.935 41.025 36.871 44 40.5 44c3.018 0 4.947-1.235 6.039-3.075C46.781 40.519 46.474 40 46.001 40l-2.698 0c-.173 0-.345.065-.459.196C42.414 40.696 41.833 41 40.5 41c-1.26 0-2.29-1.31-2.46-3H46c.5 0 .91-.37.98-.85C46.98 37 46.97 36.85 46.95 36.71zM38.127 36c.422-1.18 1.329-2 2.373-2s1.951.82 2.373 2H38.127z"/></svg>